<svg width="17" height="17" viewBox="0 0 17 17" fill="none" xmlns="http://www.w3.org/2000/svg">
<g clip-path="url(#clip0_101_2454)">
<path d="M10.671 9.34827C10.3022 9.34827 10.0041 9.64708 10.0041 10.0151V12.6828C10.0041 13.0502 9.70533 13.3496 9.33716 13.3496H7.33649V3.34624C7.33649 2.77671 6.97369 2.26787 6.42822 2.07848L6.23077 2.01241H9.33716C9.70533 2.01241 10.0041 2.31183 10.0041 2.67939V4.68007C10.0041 5.04811 10.3022 5.34692 10.671 5.34692C11.0398 5.34692 11.3378 5.04811 11.3378 4.68007V2.67939C11.3378 1.57635 10.4402 0.678711 9.33716 0.678711H2.16811C2.14271 0.678711 2.12146 0.690067 2.0968 0.693364C2.06468 0.690678 2.03403 0.678711 2.00143 0.678711C1.26583 0.678711 0.667603 1.27681 0.667603 2.01241V14.0165C0.667603 14.586 1.0304 15.0948 1.57587 15.2842L5.58931 16.6221C5.72535 16.6641 5.86064 16.6841 6.00278 16.6841C6.73838 16.6841 7.33649 16.0859 7.33649 15.3503V14.6835H9.33716C10.4402 14.6835 11.3378 13.7858 11.3378 12.6828V10.0151C11.3378 9.64708 11.0398 9.34827 10.671 9.34827Z" fill="#0073CC"/>
<path d="M16.4776 6.87581L13.8099 4.20828C13.6193 4.01754 13.3325 3.96015 13.0831 4.06345C12.8344 4.16688 12.6716 4.41025 12.6716 4.67975V6.68043H10.0041C9.6359 6.68043 9.3371 6.97911 9.3371 7.34728C9.3371 7.71544 9.6359 8.01413 10.0041 8.01413H12.6716V10.0148C12.6716 10.2843 12.8344 10.5277 13.0831 10.6311C13.3325 10.7344 13.6193 10.677 13.8099 10.4864L16.4776 7.81875C16.7383 7.55804 16.7383 7.13651 16.4776 6.87581Z" fill="#0073CC"/>
</g>
<defs>
<clipPath id="clip0_101_2454">
<rect width="16.0056" height="16.0056" fill="white" transform="translate(0.667603 0.678223)"/>
</clipPath>
</defs>
</svg>
