<svg width="24" height="30" viewBox="0 0 24 30" fill="none" xmlns="http://www.w3.org/2000/svg">
<g filter="url(#filter0_d_1_2872)">
<path fill-rule="evenodd" clip-rule="evenodd" d="M12 13V13C10.343 13 9 11.657 9 10V10C9 8.343 10.343 7 12 7V7C13.657 7 15 8.343 15 10V10C15 11.657 13.657 13 12 13Z" stroke="#797C7B" stroke-width="1.5" stroke-linecap="round" stroke-linejoin="round"/>
<path fill-rule="evenodd" clip-rule="evenodd" d="M12.7368 20.352C12.3143 20.7389 11.6857 20.7389 11.2632 20.352C9.46541 18.7053 5 14.1932 5 10C5 6.134 8.134 3 12 3C15.866 3 19 6.134 19 10C19 14.1932 14.5346 18.7053 12.7368 20.352Z" stroke="#797C7B" stroke-width="1.5" stroke-linecap="round" stroke-linejoin="round"/>
</g>
<defs>
<filter id="filter0_d_1_2872" x="-4" y="0" width="32" height="32" filterUnits="userSpaceOnUse" color-interpolation-filters="sRGB">
<feFlood flood-opacity="0" result="BackgroundImageFix"/>
<feColorMatrix in="SourceAlpha" type="matrix" values="0 0 0 0 0 0 0 0 0 0 0 0 0 0 0 0 0 0 127 0" result="hardAlpha"/>
<feOffset dy="4"/>
<feGaussianBlur stdDeviation="2"/>
<feComposite in2="hardAlpha" operator="out"/>
<feColorMatrix type="matrix" values="0 0 0 0 0 0 0 0 0 0 0 0 0 0 0 0 0 0 0.25 0"/>
<feBlend mode="normal" in2="BackgroundImageFix" result="effect1_dropShadow_1_2872"/>
<feBlend mode="normal" in="SourceGraphic" in2="effect1_dropShadow_1_2872" result="shape"/>
</filter>
</defs>
</svg>
