<svg width="77" height="20" viewBox="0 0 77 20" fill="none" xmlns="http://www.w3.org/2000/svg">
<path d="M27.8935 15.21C30.4275 15.21 31.9395 13.6 32.3875 11.92L30.8475 11.416C30.5115 12.536 29.5595 13.6 27.8935 13.6C26.1995 13.6 24.6035 12.368 24.6035 10.044C24.6035 7.636 26.2415 6.446 27.8795 6.446C29.5455 6.446 30.4695 7.412 30.7635 8.616L32.3455 8.084C31.8975 6.348 30.3995 4.864 27.8795 4.864C25.3035 4.864 22.8815 6.81 22.8815 10.044C22.8815 13.278 25.2195 15.21 27.8935 15.21ZM35.4401 10.996C35.4681 10.128 35.9581 9.456 36.8541 9.456C37.8761 9.456 38.2541 10.128 38.2541 10.968V15H39.8781V10.688C39.8781 9.19 39.0661 7.986 37.3861 7.986C36.6721 7.986 35.9021 8.238 35.4401 8.84V4.864H33.8161V15H35.4401V10.996ZM41.4352 13.152C41.4352 14.23 42.3172 15.21 43.7452 15.21C44.8512 15.21 45.5232 14.65 45.8452 14.132C45.8452 14.678 45.9012 14.958 45.9152 15H47.4272C47.4132 14.93 47.3432 14.524 47.3432 13.908V10.52C47.3432 9.162 46.5452 7.972 44.4452 7.972C42.7652 7.972 41.7012 9.022 41.5752 10.198L43.0592 10.534C43.1292 9.848 43.6052 9.302 44.4592 9.302C45.3552 9.302 45.7472 9.764 45.7472 10.338C45.7472 10.576 45.6352 10.772 45.2432 10.828L43.4932 11.094C42.3312 11.262 41.4352 11.934 41.4352 13.152ZM44.0532 13.936C43.4092 13.936 43.0592 13.516 43.0592 13.054C43.0592 12.494 43.4652 12.214 43.9692 12.13L45.7472 11.864V12.172C45.7472 13.502 44.9632 13.936 44.0532 13.936ZM51.337 6.096H49.867V7.118C49.867 7.72 49.545 8.182 48.817 8.182H48.467V9.624H49.727V13.054C49.727 14.328 50.511 15.084 51.771 15.084C52.359 15.084 52.667 14.972 52.765 14.93V13.586C52.695 13.6 52.429 13.642 52.205 13.642C51.603 13.642 51.337 13.39 51.337 12.788V9.624H52.751V8.182H51.337V6.096ZM55.8102 15V14.09C56.2022 14.748 56.9442 15.168 57.9102 15.168C59.8982 15.168 61.1162 13.614 61.1162 11.556C61.1162 9.554 60.0102 8 57.9662 8C56.9162 8 56.1322 8.49 55.8242 9.022V4.864H54.2282V15H55.8102ZM59.4782 11.57C59.4782 12.914 58.7082 13.726 57.6442 13.726C56.6082 13.726 55.8102 12.914 55.8102 11.57C55.8102 10.212 56.6082 9.442 57.6442 9.442C58.7222 9.442 59.4782 10.212 59.4782 11.57ZM65.6734 13.754C64.6794 13.754 63.7694 12.998 63.7694 11.584C63.7694 10.17 64.6794 9.442 65.6734 9.442C66.6814 9.442 67.5774 10.17 67.5774 11.584C67.5774 13.012 66.6814 13.754 65.6734 13.754ZM65.6734 7.972C63.6434 7.972 62.1454 9.498 62.1454 11.584C62.1454 13.684 63.6434 15.21 65.6734 15.21C67.7174 15.21 69.2154 13.684 69.2154 11.584C69.2154 9.498 67.7174 7.972 65.6734 7.972ZM69.6838 15H71.5458C71.6718 14.79 72.9458 12.928 73.0858 12.718L74.6678 15H76.5718L74.0938 11.528L76.4878 8.182H74.6398L73.1558 10.366C73.0298 10.17 71.7838 8.392 71.6578 8.182H69.7258L72.1618 11.556L69.6838 15Z" fill="white"/>
<path d="M6.7923 19.2008C4.66496 19.2008 2.99348 18.5638 1.77785 17.2898C0.592617 15.9855 0 14.1807 0 11.8754C0 9.60039 0.48625 7.56808 1.45875 5.77844C2.43125 3.98879 3.76844 2.5783 5.47031 1.54698C7.17218 0.515661 9.10199 0 11.2597 0C12.7185 0 13.8733 0.242665 14.7242 0.727993C15.5752 1.21332 16.0007 1.88065 16.0007 2.72997C16.0007 3.48829 15.636 4.23145 14.9066 4.95945C14.6331 5.23244 14.2684 5.49027 13.8125 5.73294C13.3871 5.94527 13.0528 6.05143 12.8096 6.05143C12.5361 6.05143 12.3082 5.94527 12.1259 5.73294C11.8219 5.39927 11.4269 5.08078 10.9406 4.77745C10.4544 4.47412 9.77058 4.32245 8.88925 4.32245C7.40011 4.32245 6.18449 4.83811 5.24238 5.86944C4.30027 6.87042 3.82922 8.18991 3.82922 9.82789C3.82922 11.3142 4.25469 12.5124 5.10562 13.4224C5.95656 14.3323 7.08101 14.7873 8.47898 14.7873C9.20836 14.7873 9.99851 14.666 10.8494 14.4233C11.7308 14.1503 12.5057 13.7712 13.1743 13.2859C13.5086 12.9825 13.8581 12.8309 14.2228 12.8309C14.8306 12.8309 15.1345 13.21 15.1345 13.9683C15.1345 14.9693 14.6331 15.9248 13.6302 16.8348C12.8704 17.5325 11.8523 18.1088 10.5759 18.5638C9.32992 18.9885 8.06871 19.2008 6.7923 19.2008Z" fill="#001815"/>
<path d="M6.82675 18.7436C4.76019 18.7436 3.13646 18.1218 1.95557 16.8781C0.804201 15.6049 0.228516 13.843 0.228516 11.5926C0.228516 9.37181 0.700872 7.38789 1.64559 5.64085C2.5903 3.89382 3.88928 2.51692 5.54253 1.51015C7.19578 0.503383 9.07045 0 11.1665 0C12.5836 0 13.7054 0.236887 14.5321 0.71066C15.3587 1.18443 15.772 1.83587 15.772 2.66497C15.772 3.40524 15.4177 4.13071 14.7092 4.84136C14.4435 5.10786 14.0892 5.35955 13.6464 5.59644C13.2331 5.80371 12.9083 5.90735 12.6722 5.90735C12.4065 5.90735 12.1851 5.80371 12.0079 5.59644C11.7127 5.27072 11.3289 4.95981 10.8565 4.6637C10.3842 4.36759 9.71994 4.21954 8.86379 4.21954C7.4172 4.21954 6.2363 4.72292 5.32111 5.72969C4.40592 6.70684 3.94833 7.99491 3.94833 9.59389C3.94833 11.0448 4.36164 12.2144 5.18826 13.1028C6.01489 13.9911 7.10721 14.4353 8.46524 14.4353C9.17378 14.4353 9.94135 14.3168 10.768 14.0799C11.6241 13.8134 12.3769 13.4433 13.0264 12.9695C13.3512 12.6734 13.6907 12.5254 14.045 12.5254C14.6354 12.5254 14.9306 12.8955 14.9306 13.6358C14.9306 14.6129 14.4435 15.5457 13.4693 16.434C12.7312 17.115 11.7422 17.6776 10.5023 18.1218C9.29186 18.5364 8.06669 18.7436 6.82675 18.7436Z" fill="white"/>
</svg>
